<?xml version="1.0" standalone="no"?>
<!DOCTYPE svg PUBLIC "-//W3C//DTD SVG 20010904//EN"
 "http://www.w3.org/TR/2001/REC-SVG-20010904/DTD/svg10.dtd">
<svg version="1.0" xmlns="http://www.w3.org/2000/svg"
 width="1315.000000pt" height="1315.000000pt" viewBox="0 0 1315.000000 1315.000000"
 preserveAspectRatio="xMidYMid meet">
<metadata>
Created by potrace 1.11, written by Peter Selinger 2001-2013
</metadata>
<g transform="translate(0.000000,1315.000000) scale(0.100000,-0.100000)"
fill="#000000" stroke="none">
<path d="M4808 9455 c-2 -2 -23 -5 -48 -9 -134 -17 -250 -59 -385 -139 -27
-16 -63 -37 -80 -47 -16 -9 -133 -77 -260 -150 -126 -73 -248 -143 -270 -155
-22 -13 -123 -71 -225 -130 -102 -59 -198 -115 -215 -125 -187 -107 -245 -141
-275 -158 -19 -12 -73 -42 -120 -68 -47 -26 -86 -51 -88 -56 -2 -4 -7 -8 -12
-8 -5 0 -48 -23 -97 -51 -48 -29 -113 -65 -143 -82 -30 -17 -56 -34 -58 -39
-2 -4 -8 -8 -14 -8 -5 0 -51 -24 -101 -54 -51 -29 -114 -66 -142 -81 -27 -16
-79 -45 -114 -67 -34 -21 -64 -38 -66 -38 -1 0 -96 -55 -211 -122 -115 -66
-219 -126 -231 -132 -13 -6 -23 -14 -23 -18 0 -5 -5 -8 -11 -8 -6 0 -52 -24
-102 -54 -51 -29 -114 -66 -142 -81 -27 -15 -54 -31 -60 -35 -5 -5 -37 -23
-70 -40 -323 -174 -506 -416 -552 -730 -9 -56 -9 -200 -1 -260 34 -247 167
-473 363 -619 46 -34 201 -131 210 -131 2 0 50 -27 107 -61 57 -34 121 -71
143 -84 96 -54 221 -126 235 -134 40 -25 462 -268 510 -295 30 -16 57 -33 58
-38 2 -4 8 -8 13 -8 5 0 94 -49 197 -109 103 -60 203 -118 222 -129 19 -10
121 -69 227 -131 106 -61 197 -111 202 -111 5 0 11 -4 13 -8 2 -5 30 -23 63
-42 33 -18 101 -57 150 -85 208 -122 451 -262 465 -268 8 -4 29 -15 45 -26 42
-25 221 -129 275 -159 25 -13 52 -31 61 -38 8 -8 19 -14 24 -14 4 0 40 -19 79
-43 187 -114 337 -159 526 -160 72 -1 155 9 230 25 8 2 21 7 28 11 6 5 12 6
12 3 0 -8 122 40 176 70 110 60 208 141 281 231 21 27 40 50 43 53 18 18 110
198 114 222 1 7 5 18 8 24 4 6 9 21 12 35 3 13 8 35 11 49 29 125 27 327 -6
441 -7 24 -13 46 -14 49 -24 104 -119 261 -216 361 -88 90 -134 125 -274 205
-66 38 -121 72 -123 76 -2 5 -8 8 -13 8 -5 0 -53 25 -107 56 -111 65 -149 87
-211 122 -25 14 -68 38 -95 55 -154 91 -307 177 -315 177 -5 0 -11 3 -13 8 -3
7 -105 72 -114 72 -2 0 -89 49 -192 109 -103 60 -203 118 -222 129 -19 11 -64
37 -100 57 -98 57 -131 76 -214 123 -42 23 -76 44 -76 46 0 4 125 78 260 154
25 14 89 52 143 84 55 32 100 58 102 58 2 0 61 34 130 75 70 41 129 75 130 75
2 0 25 13 52 29 49 30 530 308 593 344 19 10 76 43 125 72 89 52 126 73 215
123 70 39 193 116 219 137 188 152 302 346 349 595 14 77 5 283 -17 360 -12
41 -23 84 -26 95 -8 36 -96 205 -105 205 -6 0 -10 5 -10 11 0 24 -131 164
-205 219 -97 71 -259 147 -355 164 -14 2 -42 7 -63 11 -34 7 -214 14 -219 10z"/>
<path d="M8067 9455 c-1 -2 -27 -5 -57 -9 -30 -3 -73 -11 -95 -16 -22 -6 -44
-12 -50 -13 -5 -1 -16 -6 -22 -10 -7 -5 -13 -6 -13 -3 0 11 -154 -65 -219
-108 -111 -74 -233 -209 -303 -337 -32 -58 -74 -178 -92 -265 -14 -66 -15
-280 -2 -334 3 -14 9 -41 12 -60 4 -19 11 -43 16 -53 5 -10 11 -27 13 -38 7
-37 54 -130 102 -203 98 -148 185 -221 423 -358 91 -53 221 -128 290 -168 69
-39 231 -133 360 -207 129 -75 251 -145 270 -156 19 -11 55 -32 80 -46 25 -14
47 -29 48 -33 2 -4 12 -8 23 -8 10 0 19 -3 19 -7 0 -5 10 -13 23 -19 12 -6
124 -70 248 -142 125 -73 231 -132 237 -132 6 0 12 -4 14 -8 3 -8 90 -62 123
-75 17 -8 18 -10 5 -18 -13 -9 -473 -275 -575 -334 -55 -31 -164 -94 -200
-115 -16 -10 -91 -52 -165 -95 -74 -42 -148 -85 -165 -95 -16 -10 -59 -34 -95
-55 -36 -21 -78 -45 -95 -55 -53 -31 -202 -117 -246 -142 -13 -7 -26 -15 -29
-18 -3 -3 -23 -14 -45 -25 -22 -11 -59 -32 -81 -47 -23 -16 -44 -28 -48 -28
-15 0 -199 -119 -252 -164 -63 -53 -154 -161 -189 -224 -11 -21 -23 -39 -26
-42 -8 -7 -68 -158 -74 -187 -3 -13 -7 -33 -10 -45 -19 -79 -23 -126 -20 -233
2 -66 5 -129 8 -140 3 -11 8 -33 12 -50 46 -199 148 -359 327 -517 84 -74 262
-158 389 -183 162 -33 392 -18 492 32 15 7 27 11 27 9 0 -7 110 43 140 63 14
10 50 31 80 48 81 44 294 167 300 173 3 3 30 18 60 34 30 16 61 34 69 40 8 6
24 16 36 21 18 8 519 297 565 326 14 9 343 198 420 241 19 11 76 44 127 74 51
30 97 54 102 54 6 0 11 3 11 8 0 4 10 12 23 18 12 6 110 61 217 124 198 114
418 241 500 288 25 14 61 35 80 47 19 12 52 30 73 40 20 9 37 21 37 26 0 5 5
9 11 9 5 0 54 25 107 56 120 70 152 88 200 115 142 81 197 114 200 121 2 4 9
8 15 8 23 0 143 86 213 153 122 115 228 294 259 436 3 11 7 31 10 44 24 100
25 283 1 382 -36 151 -98 285 -178 386 -53 66 -175 179 -206 190 -10 4 -24 14
-31 23 -7 9 -20 16 -27 16 -8 0 -14 5 -14 10 0 6 -4 10 -9 10 -5 0 -47 22 -93
48 -131 76 -420 243 -455 264 -62 34 -98 55 -160 92 -34 20 -66 36 -72 36 -6
0 -11 4 -11 9 0 5 -8 11 -17 14 -10 4 -67 36 -128 72 -60 36 -126 73 -145 83
-19 9 -37 20 -40 23 -4 4 -272 160 -439 254 -20 11 -68 40 -108 63 -39 23 -76
42 -82 42 -6 0 -11 3 -11 8 0 4 -10 12 -23 18 -12 6 -110 62 -217 124 -107 62
-213 123 -235 134 -22 12 -42 23 -45 26 -3 3 -41 26 -85 51 -44 25 -138 79
-210 121 -517 299 -707 408 -755 430 -58 27 -184 65 -247 74 -39 6 -201 12
-206 9z"/>
</g>
</svg>
